<svg
  width="75"
  height="14"
  viewBox="0 0 75 14"
  fill="none"
  xmlns="http://www.w3.org/2000/svg">
  <path
    d="M10.1186 2.86747V0H0.335449V14C3.54027 13.6627 6.74509 13.494 10.1186 13.1566V11.1325H3.54027V8.26506H9.10653V5.56626H3.54027V2.86747H10.1186Z"
    fill="white"
  />
  <path
    d="M22.0944 6.57831C22.2631 6.24096 22.4318 5.90361 22.6004 5.56626C22.7691 5.22892 22.7691 4.89157 22.7691 4.55422C22.7691 4.04819 22.7691 3.54217 22.6004 2.86747C22.4318 2.36145 22.2631 1.85542 21.9257 1.3494C21.5884 0.843373 21.0823 0.674699 20.5763 0.337349C20.0703 0 19.2269 0 18.5522 0H12.1426V13.1566C13.1546 13.1566 14.3353 12.988 15.3474 12.988V8.77108H17.3715L19.0582 12.8193C20.239 12.8193 21.251 12.6506 22.4318 12.6506L20.5763 8.26506C20.9137 8.09639 21.251 7.75904 21.5884 7.59036C21.757 7.25301 21.9257 6.91566 22.0944 6.57831ZM19.0582 5.56626C18.7209 5.90361 18.3835 6.07229 17.7088 6.07229H15.3474V2.86747H17.7088C18.2149 2.86747 18.7209 3.03614 19.0582 3.37349C19.3956 3.71084 19.3956 4.04819 19.3956 4.55422C19.5643 4.89157 19.3956 5.22892 19.0582 5.56626Z"
    fill="white"
  />
  <path
    d="M34.4079 2.36145C34.2392 1.85542 33.7332 1.3494 33.3959 1.01205C32.8898 0.674699 32.3838 0.337349 31.7091 0.168675C31.0344 0 30.5284 0 29.685 0H24.4561V12.4819C27.4923 12.4819 30.5284 12.3133 33.7332 12.3133C33.9019 11.9759 34.2392 11.8072 34.4079 11.4699C34.7453 10.9639 34.9139 10.2892 34.9139 9.44578V4.38554C34.7453 3.71084 34.5766 3.03614 34.4079 2.36145ZM31.5405 8.93976C31.5405 9.27711 31.5405 9.61446 31.3718 9.95181C31.2031 10.2892 31.0344 10.4578 30.8658 10.6265C30.6971 10.7952 30.3597 10.9639 30.1911 10.9639C29.8537 10.9639 29.685 11.1325 29.3477 11.1325H27.6609V2.86747H29.3477C29.685 2.86747 29.8537 2.86747 30.1911 3.03614C30.5284 3.03614 30.6971 3.20482 30.8658 3.37349C31.0344 3.54217 31.2031 3.71084 31.3718 4.04819C31.5405 4.38554 31.5405 4.72289 31.5405 5.06024V8.93976Z"
    fill="white"
  />
  <path
    d="M44.6967 0V8.93976C44.6967 9.27711 44.6967 9.61446 44.5281 9.95181C44.3594 10.2892 44.1907 10.4578 44.022 10.6265C43.8534 10.7952 43.516 10.9639 43.3473 10.9639C43.01 10.9639 42.8413 11.1325 42.504 11.1325C42.1666 11.1325 41.998 11.1325 41.6606 10.9639C41.3233 10.9639 41.1546 10.7952 40.9859 10.6265C40.8172 10.4578 40.6486 10.2892 40.4799 9.95181C40.3112 9.61446 40.3112 9.27711 40.3112 8.93976V0H37.1064V9.61446C37.1064 10.4578 37.2751 10.9639 37.6124 11.6386C37.7811 11.9759 37.9498 12.1446 38.1184 12.4819C40.9859 12.4819 43.8534 12.4819 46.8895 12.6506C47.2269 12.3133 47.3956 11.9759 47.5642 11.6386C47.9016 11.1325 48.0703 10.4578 48.0703 9.61446V0H44.6967Z"
    fill="white"
  />
  <path
    d="M58.6966 0V8.09639L55.6605 3.37349L53.299 0H50.4316V12.6506C51.4436 12.6506 52.6243 12.6506 53.6364 12.8193V6.07229H53.8051L56.3352 9.78313L58.528 12.988C59.7087 12.988 60.8894 13.1566 62.0702 13.1566V0H58.6966Z"
    fill="white"
  />
  <path
    d="M74.0463 2.86747V0H64.4319V13.1566C67.6367 13.3253 71.0102 13.6627 74.215 13.8313V11.1325H67.6367V8.26506H73.203V5.56627H67.6367V2.86747H74.0463Z"
    fill="white"
  />
</svg>