<svg width="15" height="19" viewBox="0 0 15 19" fill="none" xmlns="http://www.w3.org/2000/svg">
<path d="M7.49999 4.57632C7.49999 1.01696 8.98014 1.18463e-05 10.9537 0C10.9537 1.01695 11.9404 3.55936 7.49999 4.57632Z" fill="#40D269"/>
<path fillRule="evenodd" clipRule="evenodd" d="M0.0992914 11.2827C1.08604 17.893 4.53972 19.4184 5.52648 18.9099C6.2151 18.5551 6.51324 18.4014 7.5 18.4014C8.48677 18.4014 8.7849 18.5551 9.47352 18.9099C10.4603 19.4184 13.914 17.893 14.9007 11.2827C15.4799 7.40304 13.4206 5.56551 11.447 5.18097C10.2792 4.95341 9.62967 5.17322 8.98729 5.39061C8.54409 5.5406 8.10429 5.68943 7.5 5.68942C6.89572 5.68943 6.45592 5.5406 6.01272 5.39061C5.37033 5.17322 4.72081 4.95341 3.55297 5.18097C1.5794 5.56551 -0.479851 7.40304 0.0992914 11.2827ZM6.51323 11.695C6.51323 12.5375 6.07144 13.2205 5.52647 13.2205C4.98149 13.2205 4.5397 12.5375 4.5397 11.695C4.5397 10.8526 4.98149 10.1696 5.52647 10.1696C6.07144 10.1696 6.51323 10.8526 6.51323 11.695ZM9.47352 13.2205C10.0185 13.2205 10.4603 12.5375 10.4603 11.695C10.4603 10.8526 10.0185 10.1696 9.47352 10.1696C8.92854 10.1696 8.48676 10.8526 8.48676 11.695C8.48676 12.5375 8.92854 13.2205 9.47352 13.2205Z" fill="#40D269"/>
</svg>
