<svg width="21" height="19" viewBox="0 0 21 19" fill="none" xmlns="http://www.w3.org/2000/svg">
<path d="M21.0001 4.79997C21.0001 3.69546 20.1047 2.80013 19.0002 2.80013C17.9169 2.80013 16.8336 2.80013 15.7503 2.80013C15.6252 2.46635 15.494 2.01505 15.3769 1.57232C15.1358 0.660472 14.3261 0 13.3829 0C11.4611 0 9.53925 0 7.6174 0C6.67406 0 5.86429 0.660688 5.62326 1.57271C5.50629 2.01531 5.37517 2.46643 5.25003 2.80013C4.16669 2.80013 3.08334 2.80013 2 2.80013C0.89543 2.80013 0 3.69556 0 4.80013C0 8.3335 0 11.8669 0 15.4002C0 15.6013 0 15.8871 0 16.2001C0 17.3047 0.895679 18.2003 2.00025 18.2003C2.31317 18.2003 2.59899 18.2003 2.80001 18.2003H18.2001C18.4011 18.2003 18.6869 18.2003 18.9998 18.2003C20.1043 18.2003 21 17.3047 21 16.2001C21 15.8871 21 15.6013 21 15.4002C21 11.8668 21.0002 8.3334 21.0001 4.79997ZM13.9618 13.9621C13.0029 14.921 11.8491 15.4005 10.5001 15.4005C9.15098 15.4005 7.99725 14.921 7.03832 13.9621C6.07939 13.0033 5.60003 11.8492 5.60003 10.5005C5.60003 9.15129 6.07955 7.9976 7.03832 7.03867C7.99714 6.07974 9.15102 5.60037 10.5001 5.60037C11.8491 5.60037 13.0029 6.07985 13.9618 7.03867C14.9207 7.99748 15.4001 9.15129 15.4001 10.5005C15.4001 11.8492 14.9207 13.0032 13.9618 13.9621Z" fill="#000"/>
<path d="M10.5001 7.35034C9.63235 7.35034 8.89041 7.65843 8.27423 8.27468C7.65806 8.89085 7.34998 9.63268 7.34998 10.5006C7.34998 11.3682 7.65806 12.1102 8.27423 12.7263C8.89041 13.3424 9.63231 13.6505 10.5001 13.6505C11.3677 13.6505 12.1098 13.3424 12.7259 12.7263C13.3421 12.1102 13.6502 11.3683 13.6502 10.5006C13.6502 9.63272 13.3421 8.89089 12.7259 8.27468C12.1098 7.65847 11.3677 7.35034 10.5001 7.35034Z" fill="#000"/>
</svg>
