<svg width="15" height="14" viewBox="0 0 15 14" fill="none" xmlns="http://www.w3.org/2000/svg">
<path fillRule="evenodd" clipRule="evenodd" d="M0.991179 14C0.449565 14 0 13.5543 0 13.0046V4.4C0 4.17909 0.179086 4 0.4 4H1.6C1.82091 4 2 4.17909 2 4.4V10.4966C2 10.7671 2.2232 11 2.49852 11H3V1.00684C3 0.450771 3.45576 0 4.00247 0H13.9975C14.5512 0 15 0.44994 15 1.00684V12.5018C15 13.3292 14.3204 14 13.5045 14H0.991179ZM6 5.50952V3.49048C6 3.21959 6.22788 3 6.491 3H11.509C11.7802 3 12 3.21506 12 3.49048V5.50952C12 5.78041 11.7721 6 11.509 6H6.491C6.21983 6 6 5.78494 6 5.50952ZM6.5 7H11.5C11.7761 7 12 7.22386 12 7.5V8.5C12 8.77614 11.7761 9 11.5 9H6.5C6.22386 9 6 8.77614 6 8.5V7.5C6 7.22386 6.22386 7 6.5 7ZM11.5 10H6.5C6.22386 10 6 10.2239 6 10.5V11C6 11.2761 6.22386 11.5 6.5 11.5H11.5C11.7761 11.5 12 11.2761 12 11V10.5C12 10.2239 11.7761 10 11.5 10Z" fill="#FD9C09"/>
</svg>
