<svg width="27" height="20" viewBox="0 0 27 20" fill="none" xmlns="http://www.w3.org/2000/svg">
<path fill-rule="evenodd" clip-rule="evenodd" d="M2 0C0.895431 0 0 0.895431 0 2V17.2857C0 18.3903 0.895431 19.2857 2 19.2857H25C26.1046 19.2857 27 18.3903 27 17.2857V2C27 0.895431 26.1046 0 25 0H2ZM8.57249 9.67177V10.8482H10.2021C10.1732 11.7257 9.69106 12.3525 8.63035 12.3525C7.38642 12.3525 6.76928 11.3689 6.76928 10.0575C6.76928 8.74605 7.38642 7.77212 8.62071 7.77212C9.3632 7.77212 9.80678 8.07105 9.96106 8.58212H11.4557C11.1953 7.31891 10.2021 6.48962 8.63035 6.48962C6.47035 6.48962 5.29392 7.98427 5.29392 10.0575C5.29392 12.1403 6.4607 13.6253 8.62071 13.6253C10.7807 13.6253 11.6389 12.0825 11.6389 10.4818V9.67177H8.57249ZM13.0057 6.61498V13.5H14.4425V6.61498H13.0057ZM21.1657 6.61498V7.89748H17.5207V9.47891H20.3943V10.7325H17.5207V13.5H16.0839V6.61498H21.1657Z" fill="#A4A3A3"/>
</svg>
