<svg width="19" height="19" viewBox="0 0 19 19" fill="none" xmlns="http://www.w3.org/2000/svg">
<path d="M6.36857 0.50954C4.08336 1.31245 2.10697 3.0418 0.995242 5.20349C0.624667 5.94464 0.315855 6.74755 0.19233 7.61222C-0.240007 9.65038 0.0688051 11.8738 0.995242 13.7267C1.61287 14.962 2.47754 16.0119 3.58926 16.8766C4.57746 17.6795 5.75095 18.2971 7.04796 18.6059C8.65378 19.0383 10.3214 19.0383 11.8654 18.6677C13.286 18.3589 14.6447 17.6795 15.7565 16.6295C16.93 15.5796 17.7329 14.2208 18.1652 12.6767C18.6593 11.0709 18.7211 9.34157 18.4122 7.67398C15.4477 7.67398 12.4831 7.67398 9.51846 7.67398C9.51846 8.90923 9.51846 10.1445 9.51846 11.3797C11.2478 11.3797 12.9772 11.3797 14.6447 11.3797C14.4595 12.5532 13.7183 13.6649 12.7301 14.2826C12.1125 14.7149 11.3713 14.962 10.6302 15.0855C9.88903 15.209 9.08612 15.209 8.34497 15.0855C7.60382 14.962 6.86267 14.5914 6.24505 14.159C5.25685 13.4797 4.45394 12.4297 4.08336 11.2562C3.65103 10.0827 3.65103 8.78571 4.08336 7.55046C4.39218 6.74755 4.82451 5.94463 5.44214 5.32701C6.18329 4.5241 7.17148 3.96824 8.28321 3.78295C9.20965 3.59766 10.1361 3.59766 11.0625 3.90647C11.8037 4.15352 12.5448 4.58586 13.1007 5.07996C13.6565 4.5241 14.2742 3.90647 14.83 3.35061C15.1388 3.0418 15.4477 2.73299 15.7565 2.42418C14.8918 1.62126 13.8418 0.941877 12.7301 0.50954C10.6919 -0.169847 8.40673 -0.169847 6.36857 0.50954Z" fill="white"/>
<path d="M6.36857 0.510006C8.40673 -0.169381 10.6919 -0.169381 12.7301 0.571769C13.8418 1.00411 14.8918 1.62173 15.7565 2.4864C15.4477 2.79522 15.1388 3.10403 14.83 3.41284C14.2742 3.9687 13.6565 4.58633 13.1007 5.14219C12.5448 4.58633 11.8037 4.15399 11.0625 3.9687C10.1978 3.72165 9.20964 3.65989 8.28321 3.84518C7.23325 4.09223 6.24505 4.64809 5.44213 5.38924C4.82451 6.00686 4.33041 6.80977 4.08336 7.61269C3.0334 6.80977 2.0452 6.00686 0.995239 5.20395C2.10696 3.04227 4.08336 1.31292 6.36857 0.510006Z" fill="#EA4335"/>
<path d="M0.19233 7.61235C0.377617 6.80944 0.624667 6.00652 0.995242 5.20361C2.0452 6.00652 3.0334 6.80944 4.08336 7.61235C3.65103 8.78583 3.65103 10.0828 4.08336 11.3181C3.0334 12.121 2.0452 12.9239 0.995242 13.7268C0.0688051 11.8122 -0.240007 9.65051 0.19233 7.61235Z" fill="#FBBC05"/>
<path d="M9.45667 7.67395C12.4213 7.67395 15.3859 7.67395 18.3505 7.67395C18.6593 9.34154 18.5975 11.0709 18.1034 12.6767C17.6711 14.159 16.8682 15.5178 15.6947 16.6295C14.7065 15.8266 13.7183 15.0854 12.6683 14.2825C13.6565 13.6031 14.3359 12.5532 14.5829 11.3797C12.8536 11.3797 11.1243 11.3797 9.45667 11.3797C9.45667 10.1444 9.45667 8.9092 9.45667 7.67395Z" fill="#4285F4"/>
<path d="M0.995239 13.7266C2.0452 12.9237 3.0334 12.1208 4.08336 11.3179C4.45394 12.4914 5.25685 13.5413 6.24505 14.2207C6.86267 14.653 7.60382 14.9619 8.34497 15.1471C9.08612 15.2707 9.82727 15.2707 10.6302 15.1471C11.3713 15.0236 12.1125 14.7148 12.7301 14.3442C13.7183 15.1471 14.7065 15.8883 15.7565 16.6912C14.6447 17.6794 13.3477 18.3588 11.8654 18.7294C10.2596 19.0999 8.59202 19.0999 7.04796 18.6676C5.81271 18.3588 4.63922 17.7412 3.58926 16.9383C2.5393 16.0118 1.61286 14.9001 0.995239 13.7266Z" fill="#34A853"/>
</svg>
