<svg
  width="17"
  height="19"
  viewBox="0 0 17 19"
  fill="none"
  xmlns="http://www.w3.org/2000/svg">
  <circle cx="8.50037" cy="8.6905" r="2.02381" fill="#40D269" />
  <path
    fillRule="evenodd"
    clipRule="evenodd"
    d="M11.8092 14.7249C13.9381 13.555 15.381 11.2913 15.381 8.69049C15.381 4.89025 12.3002 1.80954 8.5 1.80954C4.69976 1.80954 1.61905 4.89025 1.61905 8.69049C1.61905 11.1529 2.91254 13.3133 4.85714 14.5291V16.3725C1.98542 15.0083 0 12.0813 0 8.69049C0 3.99607 3.80558 0.190491 8.5 0.190491C13.1944 0.190491 17 3.99607 17 8.69049C17 12.2602 14.7995 15.3159 11.6811 16.5752L11.8092 14.7249ZM5.75016 11.0799C5.19391 10.4403 4.85714 9.6047 4.85714 8.69049C4.85714 6.6786 6.48811 5.04763 8.5 5.04763C10.5119 5.04763 12.1429 6.6786 12.1429 8.69049C12.1429 9.67442 11.7528 10.5672 11.1188 11.2227C11.4724 11.6636 11.7216 12.1905 11.8302 12.7647C13.0093 11.7998 13.7619 10.333 13.7619 8.69049C13.7619 5.78442 11.4061 3.42859 8.5 3.42859C5.59393 3.42859 3.2381 5.78442 3.2381 8.69049C3.2381 10.2324 3.90132 11.6194 4.95805 12.5818C5.097 12.0147 5.3735 11.5016 5.75016 11.0799Z"
    fill="#40D269"
  />
  <path
    d="M6.47656 13.4915C6.47656 12.4048 7.3575 11.5238 8.4442 11.5238C9.57379 11.5238 10.4715 12.4728 10.4088 13.6006L10.2176 17.0414C10.1625 18.0334 9.34207 18.8095 8.34855 18.8095C7.31468 18.8095 6.47656 17.9714 6.47656 16.9376V13.4915Z"
    fill="#40D269"
  />
</svg>