<svg width="21" height="22" viewBox="0 0 21 22" fill="none" xmlns="http://www.w3.org/2000/svg">
<path d="M10.5 0.20459C4.725 0.20459 0 4.92959 0 10.7046C0 16.4796 4.725 21.2046 10.5 21.2046C16.275 21.2046 21 16.4796 21 10.7046C21 4.92959 16.275 0.20459 10.5 0.20459ZM14.175 6.50459C15.015 6.50459 15.75 7.23959 15.75 8.07959C15.75 8.91959 15.015 9.65459 14.175 9.65459C13.335 9.65459 12.6 8.91959 12.6 8.07959C12.6 7.23959 13.335 6.50459 14.175 6.50459ZM6.825 6.50459C7.665 6.50459 8.4 7.23959 8.4 8.07959C8.4 8.91959 7.665 9.65459 6.825 9.65459C5.985 9.65459 5.25 8.91959 5.25 8.07959C5.25 7.23959 5.985 6.50459 6.825 6.50459ZM10.5 17.0046C7.77 17.0046 5.46 15.2196 4.62 12.8046H16.38C15.54 15.2196 13.23 17.0046 10.5 17.0046Z" fill="#000"/>
</svg>
