<svg width="18" height="18" viewBox="0 0 18 18" fill="none" xmlns="http://www.w3.org/2000/svg">
  <path
    d="M17.3812 9.99616C17.7937 9.50403 18 8.92205 18 8.25011C18 7.64075 17.786 7.11348 17.3593 6.66794C16.9319 6.22244 16.4257 5.99981 15.8407 5.99981H12.7246C12.7546 5.89046 12.7846 5.79672 12.8145 5.71861C12.8442 5.6405 12.8859 5.55447 12.9382 5.46072C12.9905 5.36693 13.0281 5.29658 13.0505 5.24979C13.1855 4.98431 13.2888 4.76542 13.3601 4.59369C13.4313 4.42162 13.5022 4.18734 13.5737 3.89046C13.6451 3.59374 13.6805 3.29674 13.6805 2.99986C13.6805 2.81245 13.6784 2.65997 13.6748 2.54287C13.6713 2.42568 13.6522 2.24985 13.6187 2.01544C13.5848 1.78115 13.5397 1.58582 13.4836 1.42964C13.4272 1.27342 13.3372 1.0975 13.2136 0.902335C13.0898 0.706797 12.9399 0.548814 12.7635 0.427649C12.5871 0.306566 12.3622 0.20502 12.0885 0.123053C11.8145 0.0410041 11.5053 0 11.1601 0C10.9651 0 10.7965 0.0742506 10.6538 0.222711C10.5039 0.378928 10.3762 0.574221 10.2713 0.808506C10.1662 1.04291 10.0931 1.24605 10.0518 1.41798C10.0105 1.58984 9.96357 1.82819 9.91128 2.13279C9.84355 2.46106 9.79315 2.69724 9.75919 2.84176C9.7255 2.98628 9.65969 3.1757 9.56229 3.41003C9.46468 3.64452 9.34856 3.83189 9.21353 3.97259C8.96607 4.23035 8.58737 4.69913 8.07725 5.37875C7.70966 5.87868 7.33095 6.35132 6.94098 6.79666C6.55092 7.24208 6.26596 7.47251 6.086 7.48814C5.89864 7.50374 5.73736 7.58382 5.60233 7.72842C5.46729 7.87294 5.3998 8.04291 5.3998 8.23816V15.7498C5.3998 15.953 5.471 16.1267 5.61352 16.2712C5.75596 16.4159 5.92473 16.492 6.11973 16.4999C6.3822 16.5077 6.97471 16.6794 7.89726 17.0157C8.47468 17.2185 8.92647 17.373 9.25273 17.4783C9.57892 17.5836 10.0349 17.697 10.6194 17.8183C11.2045 17.9393 11.7444 18 12.2393 18H12.4306H13.2856H13.6905C14.6883 17.9844 15.4267 17.6796 15.9069 17.086C16.3417 16.5469 16.5254 15.8398 16.4581 14.9648C16.7506 14.6758 16.9532 14.3088 17.0656 13.8634C17.1929 13.3871 17.1929 12.93 17.0656 12.4926C17.4105 12.016 17.5718 11.4808 17.5491 10.8871C17.5501 10.6368 17.4939 10.34 17.3812 9.99616Z"
    fill="#A4A3A3"
  />
  <path
    d="M3.96004 7.50009H0.720136C0.52501 7.50009 0.356246 7.57434 0.213763 7.7228C0.0712807 7.87118 0 8.04698 0 8.25011V15.7504C0 15.9532 0.0712807 16.1291 0.213803 16.2777C0.356403 16.4259 0.525168 16.5002 0.720175 16.5002H3.96004C4.155 16.5002 4.32369 16.4259 4.46625 16.2777C4.60873 16.1291 4.67998 15.9532 4.67998 15.7504V8.25011C4.67998 8.04698 4.60869 7.87122 4.46625 7.7228C4.32373 7.5743 4.15504 7.50009 3.96004 7.50009Z"
    fill="#A4A3A3"
  />
</svg>
