<svg width="24" height="14" viewBox="0 0 24 14" fill="none" xmlns="http://www.w3.org/2000/svg">
<path d="M23.0299 0.949345C23.1918 0.402485 23.0299 0 22.2512 0H19.6743C19.0181 0 18.7162 0.345617 18.5543 0.730632C18.5543 0.730632 17.2419 3.92869 15.3869 6.00244C14.7875 6.60182 14.5119 6.79435 14.1838 6.79435C14.022 6.79435 13.7726 6.60182 13.7726 6.05496V0.949345C13.7726 0.293103 13.5888 0 13.0463 0H8.99506C8.58381 0 8.33882 0.30627 8.33882 0.590613C8.33882 1.21181 9.26634 1.35619 9.3626 3.1062V6.90373C9.3626 7.73499 9.21382 7.88802 8.88573 7.88802C8.01072 7.88802 5.88445 4.67684 4.62448 1.00186C4.37078 0.288748 4.12133 0 3.46073 0H0.883767C0.14878 0 0 0.345617 0 0.730632C0 1.41305 0.875006 4.80375 4.07312 9.28371C6.20374 12.3417 9.20496 14 11.935 14C13.5755 14 13.7768 13.6325 13.7768 12.9981C13.7768 10.0756 13.6281 9.79993 14.4506 9.79993C14.8312 9.79993 15.4874 9.99241 17.0188 11.4667C18.7687 13.2168 19.0575 13.9999 20.0374 13.9999H22.6143C23.3493 13.9999 23.7212 13.6325 23.5068 12.9061C23.0168 11.3793 19.7049 8.23804 19.5562 8.02804C19.1756 7.53805 19.2849 7.31923 19.5562 6.8817C19.5607 6.87745 22.7062 2.44996 23.0299 0.949345Z" fill="#5181B8"/>
</svg>
