<svg width="21" height="13" viewBox="0 0 21 13" fill="none" xmlns="http://www.w3.org/2000/svg">
<path d="M20.5448 11.1867C20.5198 11.1328 20.4965 11.0881 20.4748 11.0523C20.1165 10.4069 19.4317 9.6147 18.4208 8.6755L18.3995 8.654L18.3888 8.64345L18.378 8.63264H18.3671C17.9083 8.1953 17.6178 7.90125 17.4962 7.7507C17.2736 7.46391 17.2237 7.17362 17.3454 6.87949C17.4313 6.65726 17.7542 6.18795 18.3132 5.4709C18.6073 5.09089 18.8402 4.78633 19.0121 4.55687C20.2525 2.90787 20.7903 1.85413 20.6253 1.39525L20.5612 1.28801C20.5182 1.22346 20.4071 1.16439 20.228 1.11053C20.0486 1.05678 19.8192 1.0479 19.5396 1.08372L16.4426 1.10511C16.3924 1.08733 16.3207 1.08899 16.2274 1.11053C16.1342 1.13208 16.0876 1.14289 16.0876 1.14289L16.0337 1.16982L15.9909 1.20217C15.955 1.22357 15.9156 1.2612 15.8725 1.31498C15.8297 1.36858 15.7939 1.43148 15.7652 1.50316C15.4281 2.37064 15.0447 3.17718 14.6144 3.92273C14.3492 4.3673 14.1055 4.75258 13.8831 5.0788C13.6609 5.40491 13.4745 5.64518 13.324 5.7992C13.1734 5.95336 13.0374 6.07687 12.9153 6.17017C12.7933 6.2635 12.7003 6.30294 12.6358 6.28851C12.5712 6.27409 12.5104 6.25977 12.4528 6.24546C12.3525 6.1809 12.2718 6.0931 12.211 5.98199C12.1499 5.87088 12.1088 5.73102 12.0873 5.56254C12.0659 5.39395 12.0532 5.24894 12.0496 5.12702C12.0462 5.00524 12.0478 4.833 12.0551 4.61077C12.0625 4.38843 12.0659 4.23799 12.0659 4.15912C12.0659 3.88665 12.0712 3.59093 12.0818 3.2719C12.0927 2.95288 12.1015 2.7001 12.1088 2.51388C12.1161 2.32747 12.1195 2.13026 12.1195 1.92234C12.1195 1.71443 12.1069 1.55137 12.0818 1.43303C12.0571 1.31483 12.0192 1.2001 11.9692 1.08888C11.9189 0.977761 11.8453 0.891808 11.7488 0.83079C11.652 0.769847 11.5317 0.721484 11.3885 0.685551C11.0085 0.59956 10.5246 0.553043 9.93663 0.545811C8.60322 0.531498 7.74644 0.617602 7.36647 0.804009C7.21592 0.882768 7.07968 0.990379 6.95787 1.1265C6.82879 1.28428 6.81079 1.37039 6.90397 1.38455C7.33419 1.449 7.63876 1.60316 7.81801 1.8469L7.8826 1.97605C7.93285 2.06924 7.98302 2.23421 8.03323 2.47075C8.08336 2.7073 8.11572 2.96896 8.12996 3.2556C8.16574 3.77904 8.16574 4.22711 8.12996 4.59985C8.09406 4.97274 8.06016 5.26303 8.02781 5.47094C7.99545 5.67886 7.94709 5.84733 7.8826 5.97634C7.81801 6.10538 7.77503 6.18425 7.75349 6.21288C7.73198 6.24151 7.71405 6.25955 7.69981 6.26663C7.60663 6.30234 7.50971 6.32053 7.40941 6.32053C7.30896 6.32053 7.18714 6.27028 7.04379 6.16987C6.90047 6.06945 6.75173 5.93152 6.59756 5.75585C6.4434 5.58013 6.26953 5.33459 6.07589 5.01918C5.8824 4.70377 5.68165 4.33099 5.47373 3.90085L5.30171 3.5889C5.19418 3.38822 5.04728 3.09601 4.86087 2.71253C4.67435 2.32891 4.50949 1.95782 4.36617 1.59936C4.30888 1.44881 4.22282 1.33419 4.10812 1.25532L4.0543 1.22297C4.01852 1.19434 3.96108 1.16394 3.88228 1.13155C3.80337 1.0992 3.72103 1.07599 3.63493 1.06172L0.688378 1.08311C0.387279 1.08311 0.18298 1.15132 0.0754068 1.28756L0.0323548 1.35201C0.0108477 1.3879 0 1.44523 0 1.52414C0 1.60301 0.0215071 1.69981 0.064559 1.81443C0.494701 2.82538 0.962472 3.80035 1.46787 4.73951C1.97327 5.67867 2.41245 6.43518 2.78515 7.00838C3.15793 7.58199 3.5379 8.12336 3.92507 8.63222C4.31223 9.14128 4.56851 9.4675 4.6939 9.61082C4.81944 9.7544 4.91805 9.86175 4.98973 9.93342L5.25862 10.1915C5.43068 10.3636 5.68334 10.5697 6.01672 10.8098C6.35018 11.0501 6.71934 11.2866 7.12439 11.5198C7.52953 11.7526 8.00084 11.9426 8.53859 12.0895C9.07627 12.2366 9.5996 12.2956 10.1086 12.2672H11.3454C11.5962 12.2455 11.7862 12.1666 11.9154 12.0305L11.9581 11.9766C11.9869 11.9338 12.0139 11.8673 12.0387 11.7779C12.0639 11.6883 12.0764 11.5895 12.0764 11.4822C12.069 11.1739 12.0925 10.8962 12.1461 10.6488C12.1997 10.4016 12.2608 10.2152 12.3292 10.0897C12.3974 9.96423 12.4745 9.85839 12.5603 9.77259C12.6462 9.6866 12.7075 9.63451 12.7434 9.61658C12.7791 9.59854 12.8076 9.5863 12.8291 9.57895C13.0012 9.52163 13.2037 9.57714 13.4369 9.74577C13.6699 9.91425 13.8885 10.1223 14.093 10.3695C14.2973 10.617 14.5428 10.8946 14.8295 11.2028C15.1164 11.5112 15.3673 11.7404 15.5823 11.8911L15.7973 12.0202C15.9408 12.1063 16.1273 12.1852 16.3567 12.2568C16.5858 12.3285 16.7864 12.3464 16.9588 12.3106L19.7116 12.2676C19.9839 12.2676 20.1958 12.2226 20.3461 12.1331C20.4967 12.0435 20.5861 11.9448 20.615 11.8374C20.6437 11.7299 20.6453 11.6079 20.6204 11.4716C20.5949 11.3356 20.5698 11.2405 20.5448 11.1867Z" fill="#A4A3A3"/>
</svg>
